<svg width="28" height="24" viewBox="0 0 28 24" fill="none" xmlns="http://www.w3.org/2000/svg">
<path d="M5.47241 7.42531C5.7262 6.57934 6.50484 6 7.38806 6H20.6119C21.4952 6 22.2738 6.57934 22.5276 7.4253L26.7276 21.4253C27.1126 22.7085 26.1517 24 24.8119 24H3.18806C1.84834 24 0.887442 22.7085 1.27241 21.4253L5.47241 7.42531Z" fill="#EC60A3"/>
<path d="M18.9 6.66667C18.9 10.176 16.6129 12.8333 14 12.8333C11.3871 12.8333 9.09998 10.176 9.09998 6.66667C9.09998 3.15733 11.3871 0.5 14 0.5C16.6129 0.5 18.9 3.15733 18.9 6.66667Z" stroke="#EC60A3"/>
<path d="M18.9726 11.8944C18.6853 11.6106 18.3441 11.3854 17.9687 11.2317C17.5933 11.0781 17.1908 10.999 16.7844 10.999C16.378 10.999 15.9756 11.0781 15.6002 11.2317C15.2247 11.3854 14.8836 11.6106 14.5963 11.8944L14.0001 12.4833L13.4038 11.8944C12.8235 11.3213 12.0364 10.9993 11.2157 10.9993C10.395 10.9993 9.60789 11.3213 9.02757 11.8944C8.44724 12.4676 8.12122 13.245 8.12122 14.0556C8.12122 14.8661 8.44724 15.6435 9.02757 16.2167L14.0001 21.1278L18.9726 16.2167C19.26 15.9329 19.488 15.596 19.6436 15.2252C19.7991 14.8544 19.8792 14.4569 19.8792 14.0556C19.8792 13.6542 19.7991 13.2567 19.6436 12.8859C19.488 12.5151 19.26 12.1782 18.9726 11.8944Z" stroke="white" stroke-linecap="round" stroke-linejoin="round"/>
</svg>
