<svg width="32" height="38" viewBox="0 0 32 38" fill="none" xmlns="http://www.w3.org/2000/svg">
<path d="M29.9539 11.4993C29.8685 16.675 25.4642 20.8626 20.0245 20.7583C14.5847 20.6541 10.3215 16.3003 10.4069 11.1246C10.4924 5.94893 14.8966 1.76135 20.3364 1.86563C25.7761 1.96991 30.0394 6.32366 29.9539 11.4993Z" fill="#CBEFFF" stroke="#9CE6FF" stroke-width="3"/>
<path d="M23.2317 22.322C23.1455 27.4976 18.7407 31.6847 13.3009 31.5797C7.86117 31.4747 3.59853 27.1204 3.6847 21.9447C3.77087 16.769 8.17571 12.582 13.6155 12.687C19.0552 12.792 23.3178 17.1463 23.2317 22.322Z" fill="#CBEFFF" stroke="#9CE6FF" stroke-width="3"/>
<path d="M10.355 10.0293C10.319 12.1823 8.47848 13.9675 6.15175 13.9225C3.82502 13.8775 2.04526 12.0222 2.0812 9.8692C2.11714 7.71621 3.95768 5.93096 6.28441 5.97598C8.61114 6.021 10.3909 7.8763 10.355 10.0293Z" fill="#CBEFFF" stroke="#9CE6FF" stroke-width="3"/>
<path d="M19.2692 22.3972C19.1917 21.5393 18.9518 20.7022 18.5634 19.9338C18.1749 19.1654 17.6454 18.4807 17.0052 17.9188C16.3649 17.357 15.6264 16.9289 14.8318 16.6591C14.0372 16.3892 13.202 16.283 12.3741 16.3463" stroke="white" stroke-width="1.5"/>
<path d="M26.0774 12.0279C26.0918 11.1654 25.9427 10.3082 25.6387 9.50525C25.3347 8.7023 24.8818 7.96931 24.3057 7.34813C23.7296 6.72695 23.0418 6.22975 22.2813 5.88491C21.5209 5.54007 20.7028 5.35435 19.8738 5.33835" stroke="white" stroke-width="1.5"/>
<path d="M28.0269 31.5957C27.986 34.053 26.0118 35.9529 23.683 35.9079C21.3542 35.863 19.4445 33.8881 19.4854 31.4308C19.5263 28.9736 21.5005 27.0737 23.8293 27.1186C26.1581 27.1636 28.0678 29.1384 28.0269 31.5957Z" fill="#CBEFFF" stroke="#9CE6FF" stroke-width="3"/>
<path d="M25.5404 31.6636C25.5278 31.4012 25.4635 31.1439 25.3514 30.9064C25.2393 30.6689 25.0816 30.4558 24.8871 30.2793C24.6926 30.1027 24.4653 29.9662 24.2181 29.8775C23.9709 29.7888 23.7086 29.7497 23.4463 29.7624C23.1839 29.7751 22.9267 29.8393 22.6891 29.9514" stroke="white"/>
<path d="M8.15732 10.2636C8.14465 10.0012 8.08043 9.74395 7.96833 9.50643C7.85623 9.26891 7.69844 9.0558 7.50398 8.87926C7.30952 8.70272 7.08219 8.56621 6.83497 8.47752C6.58775 8.38884 6.32549 8.34972 6.06315 8.36239C5.80081 8.37506 5.54354 8.43928 5.30602 8.55138" stroke="white"/>
</svg>
