<svg width="28" height="34" viewBox="0 0 28 34" fill="none" xmlns="http://www.w3.org/2000/svg">
<path d="M25.8554 10.4755C25.7834 14.8367 22.07 18.3771 17.469 18.2889C12.8681 18.2007 9.27393 14.5202 9.34593 10.159C9.41792 5.7978 13.1313 2.25744 17.7322 2.34564C22.3332 2.43384 25.9274 6.11429 25.8554 10.4755Z" fill="#CBEFFF" fill-opacity="0.5" stroke="#9CE6FF" stroke-width="3"/>
<path d="M20.0387 19.84C19.9661 24.2012 16.2522 27.7411 11.6513 27.6523C7.05033 27.5635 3.45668 23.8826 3.52929 19.5214C3.6019 15.1602 7.31576 11.6203 11.9167 11.7091C16.5176 11.7979 20.1113 15.4788 20.0387 19.84Z" fill="#CBEFFF" fill-opacity="0.7" stroke="#9CE6FF" stroke-width="3"/>
<path d="M8.89682 9.20346C8.86768 10.9492 7.37265 12.4109 5.46532 12.374C3.55798 12.3371 2.11271 10.8185 2.14185 9.07276C2.171 7.327 3.66603 5.8653 5.57336 5.9022C7.48069 5.93911 8.92596 7.4577 8.89682 9.20346Z" fill="#CBEFFF" fill-opacity="0.5" stroke="#9CE6FF" stroke-width="3"/>
<path d="M16.8121 19.909C16.745 19.1667 16.5375 18.4424 16.2014 17.7775C15.8653 17.1126 15.4071 16.5202 14.8531 16.034C14.2991 15.5478 13.6601 15.1774 12.9725 14.944C12.285 14.7105 11.5624 14.6185 10.8459 14.6733" stroke="white" stroke-width="1.5"/>
<path d="M22.7032 10.9367C22.7156 10.1904 22.5866 9.44872 22.3236 8.75395C22.0606 8.05918 21.6686 7.42494 21.1702 6.88745C20.6717 6.34996 20.0765 5.91974 19.4185 5.62136C18.7605 5.32298 18.0527 5.16228 17.3353 5.14844" stroke="white" stroke-width="1.5"/>
<path d="M24.1879 27.8644C24.1543 29.883 22.5341 31.4341 20.6347 31.3975C18.7352 31.3608 17.1677 29.7482 17.2013 27.7295C17.2349 25.7108 18.8551 24.1597 20.7546 24.1964C22.654 24.2331 24.2215 25.8457 24.1879 27.8644Z" fill="#CBEFFF" fill-opacity="0.5" stroke="#9CE6FF" stroke-width="3"/>
<path d="M22.2385 27.927C22.2275 27.7 22.172 27.4773 22.075 27.2718C21.978 27.0663 21.8415 26.8819 21.6732 26.7292C21.5049 26.5764 21.3082 26.4583 21.0943 26.3815C20.8804 26.3048 20.6535 26.271 20.4265 26.2819C20.1995 26.2929 19.9769 26.3485 19.7714 26.4455" stroke="white"/>
<path d="M7.19726 9.41008C7.18629 9.18308 7.13072 8.96047 7.03372 8.75495C6.93673 8.54943 6.8002 8.36503 6.63194 8.21228C6.46367 8.05952 6.26697 7.9414 6.05306 7.86467C5.83915 7.78793 5.61222 7.75408 5.38522 7.76504C5.15823 7.77601 4.93562 7.83158 4.7301 7.92857" stroke="white"/>
</svg>
