<svg width="21" height="20" viewBox="0 0 21 20" fill="none" xmlns="http://www.w3.org/2000/svg">
<path d="M3.77718 6.68458C4.02789 5.83396 4.80879 5.25 5.69559 5.25H15.3044C16.1912 5.25 16.9721 5.83396 17.2228 6.68457L20.2439 16.9346C20.6215 18.2158 19.6612 19.5 18.3255 19.5H2.67453C1.33884 19.5 0.378509 18.2158 0.756125 16.9346L3.77718 6.68458Z" fill="#FF77D2"/>
<path d="M14.2 5.77778C14.2 8.52903 12.443 10.5556 10.5 10.5556C8.55702 10.5556 6.79999 8.52903 6.79999 5.77778C6.79999 3.02652 8.55702 1 10.5 1C12.443 1 14.2 3.02652 14.2 5.77778Z" stroke="#FF77D2"/>
<path d="M14.3676 9.91644C14.1441 9.69169 13.8788 9.51341 13.5868 9.39177C13.2948 9.27014 12.9818 9.20753 12.6657 9.20753C12.3496 9.20753 12.0366 9.27014 11.7446 9.39177C11.4526 9.51341 11.1873 9.69169 10.9638 9.91644L10.5001 10.3826L10.0363 9.91644C9.58494 9.46268 8.97275 9.20777 8.33443 9.20777C7.6961 9.20777 7.08392 9.46268 6.63255 9.91644C6.18119 10.3702 5.92761 10.9856 5.92761 11.6273C5.92761 12.269 6.18119 12.8844 6.63255 13.3382L10.5001 17.2262L14.3676 13.3382C14.5911 13.1136 14.7685 12.8468 14.8895 12.5533C15.0104 12.2597 15.0727 11.9451 15.0727 11.6273C15.0727 11.3096 15.0104 10.9949 14.8895 10.7013C14.7685 10.4078 14.5911 10.1411 14.3676 9.91644Z" stroke="white" stroke-linecap="round" stroke-linejoin="round"/>
</svg>
