<svg width="28" height="28" viewBox="0 0 28 28" fill="none" xmlns="http://www.w3.org/2000/svg">
<rect x="4.08356" y="3.55765" width="19.7957" height="6.39422" rx="1" fill="#EC60A3"/>
<rect width="10.5529" height="19.2773" rx="1" transform="matrix(0.992996 -0.118149 0.125704 0.992068 13.1896 8.85303)" fill="#EC60A3"/>
<rect width="10.5529" height="19.3166" rx="1" transform="matrix(0.992996 0.118149 -0.125704 0.992068 4.21552 7.58978)" fill="#EC60A3"/>
<path d="M2.964 9.93071C3.81097 10.1545 4.64272 9.68975 5.27305 9.02354C5.92086 8.33884 6.46856 7.33691 6.79282 6.18437C7.11708 5.03184 7.16994 3.89918 6.97037 2.99062C6.7762 2.10658 6.30294 1.29709 5.45597 1.07333C4.60899 0.849568 3.77724 1.31429 3.14692 1.9805C2.4991 2.6652 1.9514 3.66713 1.62714 4.81966C1.30289 5.9722 1.25003 7.10486 1.44959 8.01342C1.64376 8.89746 2.11702 9.70695 2.964 9.93071Z" stroke="white"/>
<path d="M25.036 9.93071C25.883 9.70695 26.3562 8.89746 26.5504 8.01342C26.75 7.10486 26.6971 5.9722 26.3728 4.81966C26.0486 3.66713 25.5009 2.6652 24.8531 1.9805C24.2227 1.31429 23.391 0.849566 22.544 1.07333C21.6971 1.29709 21.2238 2.10658 21.0296 2.99061C20.8301 3.89918 20.8829 5.03184 21.2072 6.18437C21.5314 7.33691 22.0791 8.33884 22.7269 9.02353C23.3573 9.68975 24.189 10.1545 25.036 9.93071Z" stroke="white"/>
</svg>
