<svg width="23" height="23" viewBox="0 0 23 23" fill="none" xmlns="http://www.w3.org/2000/svg">
<rect x="3.4906" y="3.08401" width="15.9888" height="5.21011" rx="1" fill="#FF77D2"/>
<rect width="8.52458" height="15.7053" rx="1" transform="matrix(0.992873 -0.119176 0.124622 0.992204 10.8455 7.39876)" fill="#FF77D2"/>
<rect width="8.52458" height="15.7373" rx="1" transform="matrix(0.992873 0.119176 -0.124622 0.992204 3.59717 6.36946)" fill="#FF77D2"/>
<path d="M2.56138 8.36631C3.29861 8.5628 4.00538 8.15176 4.52263 7.60024C5.05796 7.02945 5.50653 6.19918 5.77152 5.24901C6.03651 4.29883 6.08107 3.36089 5.91616 2.60347C5.75681 1.87163 5.36124 1.1668 4.62401 0.97031C3.88678 0.773824 3.18001 1.18486 2.66275 1.73638C2.12743 2.30717 1.67886 3.13744 1.41387 4.08762C1.14888 5.03779 1.10432 5.97574 1.26923 6.73315C1.42857 7.465 1.82414 8.16983 2.56138 8.36631Z" stroke="white"/>
<path d="M20.4386 8.36632C21.1759 8.16984 21.5714 7.46501 21.7308 6.73316C21.8957 5.97575 21.8511 5.0378 21.5861 4.08762C21.3212 3.13745 20.8726 2.30718 20.3373 1.73639C19.82 1.18487 19.1132 0.773832 18.376 0.970317C17.6388 1.1668 17.2432 1.87163 17.0839 2.60348C16.919 3.36089 16.9635 4.29884 17.2285 5.24902C17.4935 6.19919 17.9421 7.02946 18.4774 7.60025C18.9946 8.15177 19.7014 8.56281 20.4386 8.36632Z" stroke="white"/>
</svg>
