<svg width="29" height="26" viewBox="0 0 29 26" fill="none" xmlns="http://www.w3.org/2000/svg">
<path d="M23.0248 2.50549C23.823 2.83921 24.5483 3.32835 25.1592 3.94496C25.7703 4.56128 26.2551 5.29305 26.5859 6.09846C26.9167 6.90387 27.0869 7.76714 27.0869 8.63895C27.0869 9.51076 26.9167 10.374 26.5859 11.1794C26.2551 11.9849 25.7703 12.7166 25.1592 13.3329L23.8914 14.612L14.5866 24L5.28176 14.612L4.01401 13.3329C2.78011 12.088 2.08691 10.3995 2.08691 8.63895C2.08691 6.87836 2.78011 5.18988 4.01401 3.94496C5.24791 2.70004 6.92143 2.00065 8.66642 2.00065C10.4114 2.00065 13.3527 4.25508 14.5866 5.5C15.1975 4.88339 17.6679 2.7568 18.4662 2.42308C19.2645 2.08935 19.6427 2 20.5068 2C21.3709 2 22.2265 2.17177 23.0248 2.50549Z" stroke="#FF0000" stroke-width="3" stroke-linecap="round" stroke-linejoin="round"/>
</svg>
