<svg width="29" height="26" viewBox="0 0 29 26" fill="none" xmlns="http://www.w3.org/2000/svg">
<path d="M23.0248 2.50549C23.8231 2.83921 24.5483 3.32835 25.1592 3.94496C25.7704 4.56128 26.2552 5.29305 26.5859 6.09846C26.9167 6.90387 27.0869 7.76714 27.0869 8.63895C27.0869 9.51076 26.9167 10.374 26.5859 11.1794C26.2552 11.9849 25.7704 12.7166 25.1592 13.3329L23.8915 14.612L14.5866 24L5.28179 14.612L4.01404 13.3329C2.78014 12.088 2.08694 10.3995 2.08694 8.63895C2.08694 6.87836 2.78014 5.18988 4.01404 3.94496C5.24794 2.70004 6.92146 2.00065 8.66645 2.00065C10.4114 2.00065 13.3527 4.25508 14.5866 5.5C15.1975 4.88339 17.668 2.7568 18.4663 2.42308C19.2645 2.08935 19.6427 2 20.5068 2C21.3709 2 22.2265 2.17177 23.0248 2.50549Z" fill="#FF0000" stroke="#FF0000" stroke-width="3" stroke-linecap="round" stroke-linejoin="round"/>
</svg>
