<svg width="23" height="25" viewBox="0 0 23 25" fill="none" xmlns="http://www.w3.org/2000/svg">
<path d="M1.64755 6.2H3.77799M3.77799 6.2H20.8215M3.77799 6.2V20.9C3.77799 21.457 4.00244 21.9911 4.40198 22.3849C4.80151 22.7787 5.3434 23 5.90842 23H16.5606C17.1256 23 17.6675 22.7787 18.067 22.3849C18.4666 21.9911 18.691 21.457 18.691 20.9V6.2M6.97364 6.2V4.1C6.97364 3.54305 7.1981 3.0089 7.59763 2.61508C7.99716 2.22125 8.53905 2 9.10407 2H13.3649C13.93 2 14.4719 2.22125 14.8714 2.61508C15.2709 3.0089 15.4954 3.54305 15.4954 4.1V6.2" stroke="#1E1E1E" stroke-width="3" stroke-linecap="round" stroke-linejoin="round"/>
</svg>
