<svg width="21" height="21" viewBox="0 0 21 21" fill="none" xmlns="http://www.w3.org/2000/svg">
<rect x="5.05713" width="11.9561" height="7.2" fill="#FF77D2"/>
<path d="M10.4505 1.21738H16.5589L20.8901 17.913H1.10986L5.50548 1.21738H10.4505Z" fill="#FF77D2"/>
<path d="M6.83333 16C6.83333 18.651 4.1275 20.5992 3.50001 20.8C2.25001 21.2 -0.666645 20 1.83333 16.8C2.66667 14.4 2.7225 12.4 4.33333 12.4C5.94416 12.4 6.83333 13.349 6.83333 16Z" fill="#FF77D2"/>
<path d="M15.1667 15.7384C15.1667 18.4913 16 19.6 17.25 20.4C18.4638 21.1768 21.8333 20.8 20.7393 16.5691C19.8105 14.0769 19.7483 12 17.953 12C16.1577 12 15.1667 12.9855 15.1667 15.7384Z" fill="#FF77D2"/>
<ellipse cx="8.08335" cy="16.4" rx="2.91667" ry="4.4" fill="#FF77D2"/>
<ellipse cx="13.0834" cy="16" rx="2.91667" ry="4.8" fill="#FF77D2"/>
</svg>
