<svg width="29" height="21" viewBox="0 0 29 21" fill="none" xmlns="http://www.w3.org/2000/svg">
<path d="M2.70758 1C2.70758 1 1.56663 1.87078 1.02986 3.12969C0.493096 4.38859 1.60288 17.1288 1.60288 17.1288" stroke="#EC60A3" stroke-linecap="round"/>
<path d="M16.5948 16.5308C16.5948 16.5308 14.0639 16.0286 10.0145 11.0064C5.9652 5.98415 1.40966 5.48193 1.40966 5.48193" stroke="#EC60A3" stroke-linecap="round"/>
<path d="M16.1975 16.6029C16.1975 16.6029 31.8888 18.6118 26.3209 14.0919" stroke="#EC60A3" stroke-linecap="round"/>
<path d="M19.7407 7.563C19.7407 7.563 27.8394 11.0785 26.3209 14.0919" stroke="#EC60A3" stroke-linecap="round"/>
<path d="M19.3358 7.3415C19.4374 7.3415 18.1569 15.5612 15.6914 13.5896" stroke="#EC60A3" stroke-linecap="round"/>
<path d="M3.03699 1.03414C3.03699 1.03414 5.5918 2.93796 6.51153 4.54023C7.43126 6.1425 6.97141 8.06522 6.97141 8.06522" stroke="#EC60A3" stroke-linecap="round"/>
<path d="M7.08642 5.0519L16.1975 14.0919" stroke="#EC60A3" stroke-linecap="round"/>
<path d="M26.3209 14.0919L16.1975 14.0919" stroke="#EC60A3" stroke-linecap="round"/>
<path d="M5.06172 7.06078L4.04938 17.1052" stroke="#EC60A3" stroke-linecap="round"/>
<path d="M2.02469 17.1052H4.04938" stroke="#EC60A3" stroke-width="1.3" stroke-linecap="round"/>
</svg>
