<svg width="25" height="17" viewBox="0 0 25 17" fill="none" xmlns="http://www.w3.org/2000/svg">
<path d="M2.32074 1C2.32074 1 1.34278 1.69663 0.882696 2.70375C0.42261 3.71087 1.37385 13.903 1.37385 13.903" stroke="#FF77D2" stroke-linecap="round"/>
<path d="M14.2241 13.4246C14.2241 13.4246 12.0548 13.0228 8.58391 9.00508C5.11305 4.98732 1.2083 4.58555 1.2083 4.58555" stroke="#FF77D2" stroke-linecap="round"/>
<path d="M13.8835 13.4824C13.8835 13.4824 27.3332 15.0895 22.5608 11.4735" stroke="#FF77D2" stroke-linecap="round"/>
<path d="M16.9206 6.2504C16.9206 6.2504 23.8624 9.06283 22.5608 11.4735" stroke="#FF77D2" stroke-linecap="round"/>
<path d="M16.5735 6.0732C16.6606 6.0732 15.563 12.6489 13.4497 11.0717" stroke="#FF77D2" stroke-linecap="round"/>
<path d="M2.60314 1.02731C2.60314 1.02731 4.79298 2.55037 5.58132 3.83219C6.36966 5.114 5.9755 6.65217 5.9755 6.65217" stroke="#FF77D2" stroke-linecap="round"/>
<path d="M6.07404 4.24152L13.8835 11.4735" stroke="#FF77D2" stroke-linecap="round"/>
<path d="M22.5608 11.4735L13.8835 11.4735" stroke="#FF77D2" stroke-linecap="round"/>
<path d="M4.33861 5.84862L3.47089 13.8841" stroke="#FF77D2" stroke-linecap="round"/>
<path d="M1.73544 13.8841H3.47089" stroke="#FF77D2" stroke-width="1.3" stroke-linecap="round"/>
</svg>
