<svg width="29" height="26" viewBox="0 0 29 26" fill="none" xmlns="http://www.w3.org/2000/svg">
<path d="M22.371 9.07384C22.371 10.7326 21.0635 12.0369 19.5 12.0369C17.9364 12.0369 16.629 10.7326 16.629 9.07384C16.629 7.41508 17.9364 6.11076 19.5 6.11076C21.0635 6.11076 22.371 7.41508 22.371 9.07384Z" fill="#EC60A3" stroke="#EC60A3" stroke-width="2"/>
<path d="M19.5 3.11364V0.999997" stroke="#EC60A3" stroke-width="2" stroke-linecap="round"/>
<path d="M13.5645 9.07384H11.5" stroke="#EC60A3" stroke-width="2" stroke-linecap="round"/>
<path d="M27.5 9.07384H25.4355" stroke="#EC60A3" stroke-width="2" stroke-linecap="round"/>
<path d="M25.7101 3.63883L24.1286 4.99746" stroke="#EC60A3" stroke-width="2" stroke-linecap="round"/>
<path d="M14.8714 13.1502L13.2899 14.5088" stroke="#EC60A3" stroke-width="2" stroke-linecap="round"/>
<path d="M14.8714 4.46905L13.2899 3.11042" stroke="#EC60A3" stroke-width="2" stroke-linecap="round"/>
<path d="M25.7101 14.5089L24.1286 13.1502" stroke="#EC60A3" stroke-width="2" stroke-linecap="round"/>
<path d="M19.5 17V14.8864" stroke="#EC60A3" stroke-width="2" stroke-linecap="round"/>
<line x1="1" y1="24.6911" x2="25" y2="24.6911" stroke="#EC60A3" stroke-linecap="round"/>
<line x1="1" y1="21.6911" x2="15" y2="21.6911" stroke="#EC60A3" stroke-linecap="round"/>
<line x1="1" y1="18.6911" x2="8" y2="18.6911" stroke="#EC60A3" stroke-linecap="round"/>
</svg>
