<svg width="38" height="36" viewBox="0 0 38 36" fill="none" xmlns="http://www.w3.org/2000/svg">
<line x1="25.8219" y1="32.9241" x2="23.3271" y2="23.2403" stroke="#EC60A3" stroke-width="0.7"/>
<path d="M22.8176 33.5458L28.6397 32.0955" stroke="#EC60A3" stroke-linecap="round"/>
<path d="M25.3639 15.2224C26.5891 19.7541 24.949 22.0105 23.5547 23.8114C21.4603 23.0494 19.1827 21.0512 17.9575 16.5195C16.7323 11.9878 15.2282 6.94571 18.3367 6.06428C23.3589 4.64026 24.1386 10.6907 25.3639 15.2224Z" fill="#EC60A3"/>
<rect x="15.2743" y="6.75974" width="8" height="3.55743" transform="rotate(-15.1298 15.2743 6.75974)" fill="white"/>
<line x1="3.80541" y1="28.3619" x2="6.90938" y2="18.8559" stroke="#EC60A3" stroke-width="0.7"/>
<path d="M0.93811 27.2706L6.62665 29.1786" stroke="#EC60A3" stroke-linecap="round"/>
<path d="M12.9381 13.1911C11.5342 17.6707 8.93811 18.6911 6.79409 19.4597C5.43811 17.6911 4.59233 14.7816 5.9962 10.302C7.40007 5.82245 8.84331 0.762579 11.9381 1.69102C16.9381 3.19102 14.342 8.71149 12.9381 13.1911Z" fill="#EC60A3"/>
<rect x="8.98218" y="0.630585" width="8" height="3.55743" transform="rotate(17.4 8.98218 0.630585)" fill="white"/>
<line x1="14.3057" y1="2.87486" x2="13.6219" y2="0.823541" stroke="#EC60A3" stroke-linecap="round"/>
<line x1="19.9381" y1="5.48398" x2="21.231" y2="4.19109" stroke="#EC60A3" stroke-linecap="round"/>
<line x1="17.5743" y1="3.58475" x2="18.3318" y2="0.554889" stroke="#EC60A3" stroke-linecap="round"/>
</svg>
