<svg width="25" height="32" viewBox="0 0 25 32" fill="none" xmlns="http://www.w3.org/2000/svg">
<line y1="-0.35" x2="8.87504" y2="-0.35" transform="matrix(-0.235727 -0.971819 0.964544 -0.263922 21.9212 30.3685)" stroke="#FF77D2" stroke-width="0.7"/>
<path d="M19.1177 31L24 29.7083" stroke="#FF77D2" stroke-linecap="round"/>
<path d="M21.2529 14.6801C22.2804 18.7163 20.905 20.726 19.7358 22.33C17.9795 21.6513 16.0696 19.8716 15.0421 15.8354C14.0147 11.7993 12.7534 7.30846 15.3601 6.52342C19.5716 5.2551 20.2255 10.6439 21.2529 14.6801Z" fill="#FF77D2"/>
<rect width="6.73784" height="3.15617" transform="matrix(0.961154 -0.276014 0.246702 0.969091 12.792 7.14283)" fill="white"/>
<line y1="-0.35" x2="8.85771" y2="-0.35" transform="matrix(0.29386 -0.955849 0.944797 0.327657 3.68347 26.1873)" stroke="#FF77D2" stroke-width="0.7"/>
<path d="M1 25.1185L5.77029 26.8179" stroke="#FF77D2" stroke-linecap="round"/>
<path d="M11.0629 12.5785C9.88568 16.5683 7.70862 17.4771 5.91069 18.1617C4.77359 16.5865 4.06433 13.9952 5.24159 10.0054C6.41885 6.01561 7.62913 1.50901 10.2244 2.33594C14.4173 3.67191 12.2402 8.58875 11.0629 12.5785Z" fill="#FF77D2"/>
<rect width="6.74694" height="3.15232" transform="matrix(0.948823 0.315808 -0.282996 0.959121 7.74561 1.39144)" fill="white"/>
<line x1="0.5" y1="-0.5" x2="2.30047" y2="-0.5" transform="matrix(-0.299443 -0.954114 0.942667 -0.333735 12.7401 3.67197)" stroke="#FF77D2" stroke-linecap="round"/>
<line x1="0.5" y1="-0.5" x2="1.94662" y2="-0.5" transform="matrix(0.685502 -0.728071 0.685502 0.728071 16.933 6.34393)" stroke="#FF77D2" stroke-linecap="round"/>
<line x1="0.5" y1="-0.5" x2="3.15998" y2="-0.5" transform="matrix(0.229121 -0.973398 0.966509 0.256632 15.2559 4.56262)" stroke="#FF77D2" stroke-linecap="round"/>
</svg>
