<svg width="22" height="22" viewBox="0 0 22 22" fill="none" xmlns="http://www.w3.org/2000/svg">
<ellipse cx="13.6693" cy="3.67059" rx="2.93333" ry="3.17059" fill="#FF77D2"/>
<ellipse cx="8.38933" cy="3.67059" rx="2.93333" ry="3.17059" fill="#FF77D2"/>
<rect x="6.04266" y="4" width="9.97333" height="6.3" fill="#FF77D2"/>
<path d="M11.0293 2.25L21.9528 18.175H0.105835L11.0293 2.25Z" fill="#FF77D2"/>
<path d="M4.91832 19.05C4.91832 20.4031 4.125 21.9565 2.75 21.9565C0.916667 21.9565 0 20.4031 0 19.05C0 17.6969 0.916667 16.9348 2.05333 16.6C3.18736 16.6 4.91832 17.6969 4.91832 19.05Z" fill="#FF77D2"/>
<path d="M9.37863 19.2174C9.37863 20.478 8.35262 21.8375 7.08696 21.8375C5.82131 21.8375 4.7953 20.478 4.7953 19.2174C4.7953 17.9567 3.20832 16.9348 7.08697 16.9348C8.35262 16.9348 9.37863 17.9567 9.37863 19.2174Z" fill="#FF77D2"/>
<path d="M13.8881 19.2174C13.8881 20.478 12.8621 21.8375 11.5964 21.8375C10.3308 21.8375 9.30476 20.478 9.30476 19.2174C9.30476 17.9567 7.71778 16.9348 11.5964 16.9348C12.8621 16.9348 13.8881 17.9567 13.8881 19.2174Z" fill="#FF77D2"/>
<path d="M18.3797 19.2174C18.3797 20.478 17.3537 21.8375 16.0881 21.8375C14.8224 21.8375 13.7964 20.478 13.7964 19.2174C13.7964 17.9567 12.2094 16.9348 16.0881 16.9348C17.3537 16.9348 18.3797 17.9567 18.3797 19.2174Z" fill="#FF77D2"/>
<path d="M22 19.2174C22 20.5705 21.0807 21.9565 19.9466 21.9565C18.8126 21.9565 17.8933 20.4031 17.8933 19.05C17.8933 17.6969 18.8126 16.6 19.9466 16.6C22 17.8478 22 17.8478 22 19.2174Z" fill="#FF77D2"/>
</svg>
